<?xml version="1.0" standalone="no"?>
<!DOCTYPE svg PUBLIC "-//W3C//DTD SVG 20010904//EN"
 "http://www.w3.org/TR/2001/REC-SVG-20010904/DTD/svg10.dtd">
<svg version="1.0" xmlns="http://www.w3.org/2000/svg"
 width="956.000000pt" height="964.000000pt" viewBox="0 0 956.000000 964.000000"
 preserveAspectRatio="xMidYMid meet">

<g transform="translate(0.000000,964.000000) scale(0.100000,-0.100000)"
fill="#000000" stroke="none">
<path d="M4762 9613 c-5 -16 -247 -827 -537 -1803 -291 -976 -530 -1777 -531
-1779 -2 -2 -718 -231 -1591 -508 -874 -278 -1594 -510 -1601 -515 -16 -14 3
-38 29 -38 11 0 778 169 1706 376 l1686 376 431 -431 c238 -238 435 -429 439
-425 4 4 7 1080 7 2391 0 2038 -2 2383 -14 2383 -8 0 -18 -12 -24 -27z"/>
<path d="M4902 9098 c-7 -7 -12 -19 -12 -27 0 -9 169 -776 376 -1705 l377
-1688 -429 -429 c-300 -300 -431 -425 -440 -419 -16 14 -4769 8 -4769 -5 0 -5
808 -251 1795 -545 987 -295 1800 -538 1806 -540 7 -3 238 -718 515 -1590 276
-872 508 -1592 516 -1600 11 -12 15 -12 28 1 14 14 -22 184 -364 1715 l-379
1699 426 427 c278 278 430 424 436 418 7 -7 855 -10 2393 -10 2052 0 2383 2
2383 14 0 8 -20 21 -47 30 -44 14 -2141 639 -3133 933 -234 70 -426 127 -428
129 -2 1 -231 717 -508 1591 -278 873 -511 1594 -517 1601 -10 9 -15 10 -25 0z"/>
<path d="M4050 8495 c-540 -108 -1060 -341 -1495 -669 -148 -111 -259 -209
-410 -360 -506 -507 -838 -1119 -985 -1814 -24 -113 -26 -134 -14 -139 8 -3
79 19 156 48 l141 54 23 91 c78 322 228 675 412 969 477 767 1259 1332 2088
1510 121 26 143 49 183 193 17 62 29 117 26 122 -8 13 -44 11 -125 -5z"/>
<path d="M5436 8452 c-7 -12 89 -271 107 -288 7 -6 62 -23 122 -39 61 -15 169
-48 240 -73 1090 -377 1928 -1288 2220 -2412 19 -73 40 -139 47 -145 18 -16
236 -77 249 -70 12 8 7 36 -38 235 -256 1129 -1078 2103 -2168 2570 -272 117
-758 255 -779 222z"/>
<path d="M4777 4774 c-11 -11 -9 -4762 2 -4769 5 -3 12 -1 15 3 3 5 247 819
542 1808 294 989 536 1800 537 1800 1 1 715 228 1587 504 872 277 1592 509
1600 517 12 11 12 15 -1 28 -14 14 -54 7 -395 -69 -1706 -382 -2989 -666
-3007 -666 -15 0 -150 129 -447 425 -234 234 -429 423 -433 419z"/>
<path d="M1143 4214 c-13 -34 61 -346 131 -557 144 -431 369 -834 668 -1195
110 -133 388 -406 530 -520 454 -362 970 -610 1537 -737 63 -14 118 -22 122
-18 5 5 -16 71 -45 148 -41 107 -60 143 -78 152 -12 6 -84 28 -158 48 -1162
315 -2107 1286 -2411 2476 -17 68 -37 130 -43 136 -6 7 -65 28 -130 47 -95 27
-118 31 -123 20z"/>
<path d="M8277 4086 c-76 -29 -142 -57 -147 -62 -4 -5 -18 -47 -30 -94 -190
-751 -649 -1433 -1287 -1911 -343 -257 -758 -458 -1173 -569 -85 -22 -162 -45
-170 -49 -8 -5 -31 -63 -51 -130 -32 -107 -35 -123 -21 -129 22 -8 217 32 385
79 821 231 1540 745 2042 1460 202 287 380 645 488 984 62 193 123 453 110
466 -5 4 -70 -16 -146 -45z"/>
</g>
</svg>
